# xmcd
#
# Track frame offsets:
#	150
#	14783
#	31533
#	49210
#	63554
#	75321
#	91296
#	106093
#	122123
#	135416
#	152797
#	166622
#	178295
#	189416
#	201900
#	218170
#
# Disc length: 3137 seconds
#
# Revision: 1
# Processed by: cddbd v1.5.2PL0 Copyright (c) Steve Scherf et al.
# Submitted via: EZCDAudioConverter 4.0.5.1
#
DISCID=d00c3f10
DTITLE=Glen Campbell - For The Good Times
DYEAR=2016
DGENRE=Country
TTITLE0=Any Which Way You Can
TTITLE1=The Old Home Town
TTITLE2=Please Come To Boston
TTITLE3=I Was Too Busy Loving You
TTITLE4=I Love How You Love Me
TTITLE5=On The Wings Of My Victory
TTITLE6=Faithless Love
TTITLE7=A Lady Like You
TTITLE8=(Love Always) Letter To Home
TTITLE9=For The Good Times
TTITLE10=Tennessee
TTITLE11=I'll Be Faithful To You
TTITLE12=It's Just A Matter Of Time
TTITLE13=Cowpoke
TTITLE14=Call Home
TTITLE15=Do What You Gotta Do
EXTD=
EXTT0=
EXTT1=
EXTT2=
EXTT3=
EXTT4=
EXTT5=
EXTT6=
EXTT7=
EXTT8=
EXTT9=
EXTT10=
EXTT11=
EXTT12=
EXTT13=
EXTT14=
EXTT15=
PLAYORDER=
